<svg xmlns="http://www.w3.org/2000/svg" xmlns:xlink="http://www.w3.org/1999/xlink" version="1.1" xml:space="preserve" viewBox="0 0 618.69 362.65">
<desc>Created with Fabric.js 3.5.0</desc>
<defs>
</defs>
<rect x="0" y="0" width="100%" height="100%" fill="rgba(255,255,255,0)"/>
<g transform="matrix(3.5518 0 0 3.5518 179.7912 637.3133)" id="p-123">
<path style="stroke: none; stroke-width: 1; stroke-dasharray: none; stroke-linecap: butt; stroke-dashoffset: 0; stroke-linejoin: miter; stroke-miterlimit: 4; is-custom-font: none; font-file-url: none; fill: rgb(156,170,243); fill-rule: nonzero; opacity: 1;" transform=" translate(0, 0)" d="M 0 0" stroke-linecap="round"/>
</g>
<g transform="matrix(3.5518 0 0 3.5518 310.232 201.5411)" id="text-0">
<path style="stroke: none; stroke-width: 1; stroke-dasharray: none; stroke-linecap: butt; stroke-dashoffset: 0; stroke-linejoin: miter; stroke-miterlimit: 4; is-custom-font: none; font-file-url: none; fill: rgb(156,170,243); fill-rule: nonzero; opacity: 1;" transform=" translate(-89.995, 12.575)" d="M 10.03 -10.47 L 13.79 -14.6 L 22.58 0 L 30.74 0 L 18.33 -19.82 L 30.3 -35.55 L 21.9 -35.55 L 13.26 -23.61 L 10.03 -19.26 L 10.03 -35.55 L 3.15 -35.55 L 3.15 0 L 10.03 0 L 10.03 -10.47 Z M 49.95 0 L 49.95 0 L 56.83 0 L 56.83 -0.42 Q 56.32 -1.42 56.05 -2.81 Q 55.78 -4.2 55.78 -6.32 L 55.78 -6.32 L 55.78 -17.65 Q 55.78 -19.95 54.93 -21.69 Q 54.07 -23.44 52.56 -24.58 L 52.56 -24.58 Q 51.05 -25.73 48.98 -26.32 Q 46.92 -26.9 44.53 -26.9 L 44.53 -26.9 Q 41.87 -26.9 39.8 -26.23 Q 37.74 -25.56 36.33 -24.41 L 36.33 -24.41 Q 34.89 -23.27 34.14 -21.75 Q 33.4 -20.24 33.4 -18.55 L 33.4 -18.55 L 40.18 -18.55 Q 40.18 -19.26 40.39 -19.85 Q 40.6 -20.43 41.04 -20.85 L 41.04 -20.85 Q 41.53 -21.31 42.31 -21.57 Q 43.09 -21.83 44.16 -21.83 L 44.16 -21.83 Q 45.38 -21.83 46.3 -21.52 Q 47.21 -21.22 47.82 -20.65 L 47.82 -20.65 Q 48.41 -20.12 48.7 -19.37 Q 49 -18.63 49 -17.7 L 49 -17.7 L 49 -16.14 L 45.21 -16.14 Q 42.28 -16.14 40.02 -15.61 Q 37.77 -15.09 36.23 -14.09 L 36.23 -14.09 Q 34.52 -12.99 33.66 -11.29 Q 32.81 -9.59 32.81 -7.4 L 32.81 -7.4 Q 32.81 -5.69 33.49 -4.24 Q 34.18 -2.78 35.4 -1.73 L 35.4 -1.73 Q 36.62 -0.68 38.32 -0.1 Q 40.01 0.49 42.04 0.49 L 42.04 0.49 Q 43.28 0.49 44.36 0.26 Q 45.43 0.02 46.34 -0.39 L 46.34 -0.39 Q 47.21 -0.78 47.95 -1.32 Q 48.68 -1.86 49.24 -2.47 L 49.24 -2.47 Q 49.36 -1.76 49.53 -1.12 Q 49.7 -0.49 49.95 0 Z M 43.48 -4.76 L 43.48 -4.76 Q 42.53 -4.76 41.81 -4.99 Q 41.09 -5.22 40.6 -5.62 L 40.6 -5.62 Q 40.11 -6.03 39.85 -6.63 Q 39.6 -7.23 39.6 -7.93 L 39.6 -7.93 Q 39.6 -8.84 39.94 -9.61 Q 40.28 -10.38 40.99 -10.94 L 40.99 -10.94 Q 41.7 -11.47 42.82 -11.78 Q 43.94 -12.08 45.53 -12.08 L 45.53 -12.08 L 49 -12.08 L 49 -7.54 Q 48.7 -7.03 48.19 -6.53 Q 47.68 -6.03 46.97 -5.64 L 46.97 -5.64 Q 46.26 -5.25 45.38 -5 Q 44.5 -4.76 43.48 -4.76 Z M 62.76 -13.4 L 62.76 -13.4 L 62.76 -12.89 Q 62.76 -10.01 63.51 -7.56 Q 64.25 -5.1 65.64 -3.32 L 65.64 -3.32 Q 67.04 -1.54 69 -0.52 Q 70.97 0.49 73.43 0.49 L 73.43 0.49 Q 74.68 0.49 75.76 0.22 Q 76.85 -0.05 77.75 -0.54 L 77.75 -0.54 Q 78.36 -0.88 78.9 -1.32 Q 79.44 -1.76 79.93 -2.29 L 79.93 -2.29 L 79.93 -0.78 Q 79.93 0.56 79.55 1.64 Q 79.17 2.71 78.46 3.44 L 78.46 3.44 Q 77.68 4.25 76.52 4.66 Q 75.36 5.08 73.87 5.08 L 73.87 5.08 Q 72.94 5.08 72.08 4.9 Q 71.21 4.71 70.41 4.35 L 70.41 4.35 Q 69.58 3.98 68.82 3.41 Q 68.06 2.83 67.4 2.08 L 67.4 2.08 L 64.35 6.2 Q 65.2 7.3 66.4 8.09 Q 67.6 8.89 68.94 9.4 L 68.94 9.4 Q 70.28 9.91 71.65 10.16 Q 73.02 10.4 74.21 10.4 L 74.21 10.4 Q 77 10.4 79.3 9.66 Q 81.61 8.91 83.27 7.47 L 83.27 7.47 Q 84.91 6.03 85.82 3.93 Q 86.74 1.83 86.74 -0.85 L 86.74 -0.85 L 86.74 -26.42 L 80.56 -26.42 L 80.29 -23.9 Q 79.8 -24.51 79.22 -25.01 Q 78.63 -25.51 77.95 -25.88 L 77.95 -25.88 Q 77.05 -26.39 75.93 -26.65 Q 74.82 -26.9 73.48 -26.9 L 73.48 -26.9 Q 70.99 -26.9 69.01 -25.93 Q 67.04 -24.95 65.64 -23.17 L 65.64 -23.17 Q 64.25 -21.39 63.51 -18.9 Q 62.76 -16.41 62.76 -13.4 Z M 69.58 -12.89 L 69.58 -12.89 L 69.58 -13.4 Q 69.58 -15.06 69.92 -16.52 Q 70.26 -17.97 70.97 -19.07 L 70.97 -19.07 Q 71.65 -20.14 72.7 -20.76 Q 73.75 -21.39 75.19 -21.39 L 75.19 -21.39 Q 75.97 -21.39 76.64 -21.24 Q 77.31 -21.09 77.88 -20.83 L 77.88 -20.83 Q 78.54 -20.51 79.05 -20 Q 79.56 -19.48 79.93 -18.8 L 79.93 -18.8 L 79.93 -7.62 Q 79.58 -7.01 79.12 -6.52 Q 78.66 -6.03 78.05 -5.69 L 78.05 -5.69 Q 77.46 -5.37 76.74 -5.2 Q 76.02 -5.03 75.14 -5.03 L 75.14 -5.03 Q 73.7 -5.03 72.65 -5.64 Q 71.6 -6.25 70.92 -7.32 L 70.92 -7.32 Q 70.23 -8.37 69.9 -9.8 Q 69.58 -11.23 69.58 -12.89 Z M 106.27 0.49 L 106.27 0.49 Q 110.1 0.49 112.91 -1 Q 115.72 -2.49 117.01 -4.32 L 117.01 -4.32 L 113.62 -7.98 Q 112.44 -6.47 110.56 -5.71 Q 108.68 -4.96 106.68 -4.96 L 106.68 -4.96 Q 105.27 -4.96 104.07 -5.4 Q 102.87 -5.83 101.95 -6.64 L 101.95 -6.64 Q 101.04 -7.42 100.51 -8.39 Q 99.97 -9.35 99.63 -10.94 L 99.63 -10.94 L 99.63 -11.01 L 117.55 -11.01 L 117.55 -13.89 Q 117.55 -16.8 116.74 -19.2 Q 115.93 -21.61 114.4 -23.32 L 114.4 -23.32 Q 112.83 -25.02 110.6 -25.96 Q 108.37 -26.9 105.51 -26.9 L 105.51 -26.9 Q 102.75 -26.9 100.41 -25.9 Q 98.06 -24.9 96.35 -23.1 L 96.35 -23.1 Q 94.65 -21.29 93.69 -18.79 Q 92.74 -16.28 92.74 -13.26 L 92.74 -13.26 L 92.74 -12.28 Q 92.74 -9.62 93.71 -7.29 Q 94.67 -4.96 96.45 -3.25 L 96.45 -3.25 Q 98.23 -1.51 100.72 -0.51 Q 103.22 0.49 106.27 0.49 Z M 105.46 -21.41 L 105.46 -21.41 Q 106.76 -21.41 107.74 -21.01 Q 108.73 -20.61 109.42 -19.92 L 109.42 -19.92 Q 110.1 -19.21 110.49 -18.26 Q 110.88 -17.31 110.88 -16.24 L 110.88 -16.24 L 110.88 -15.7 L 99.75 -15.7 Q 99.99 -16.99 100.48 -18.04 Q 100.97 -19.09 101.7 -19.85 L 101.7 -19.85 Q 102.41 -20.61 103.36 -21.01 Q 104.31 -21.41 105.46 -21.41 Z M 123.55 -26.42 L 123.55 10.16 L 130.34 10.16 L 130.34 -2.29 Q 130.8 -1.78 131.31 -1.37 Q 131.83 -0.95 132.39 -0.61 L 132.39 -0.61 Q 133.34 -0.07 134.45 0.21 Q 135.56 0.49 136.88 0.49 L 136.88 0.49 Q 139.37 0.49 141.3 -0.54 Q 143.23 -1.56 144.55 -3.37 L 144.55 -3.37 Q 145.84 -5.15 146.51 -7.62 Q 147.18 -10.08 147.18 -12.96 L 147.18 -12.96 L 147.18 -13.48 Q 147.18 -16.48 146.51 -18.96 Q 145.84 -21.44 144.52 -23.22 L 144.52 -23.22 Q 143.2 -24.98 141.27 -25.94 Q 139.35 -26.9 136.83 -26.9 L 136.83 -26.9 Q 135.61 -26.9 134.55 -26.65 Q 133.49 -26.39 132.61 -25.93 L 132.61 -25.93 Q 131.87 -25.54 131.24 -25.01 Q 130.61 -24.49 130.07 -23.83 L 130.07 -23.83 L 129.82 -26.42 L 123.55 -26.42 Z M 140.4 -13.48 L 140.4 -13.48 L 140.4 -12.96 Q 140.4 -11.33 140.1 -9.88 Q 139.81 -8.42 139.17 -7.32 L 139.17 -7.32 Q 138.54 -6.23 137.53 -5.59 Q 136.51 -4.96 135.07 -4.96 L 135.07 -4.96 Q 134.17 -4.96 133.44 -5.14 Q 132.7 -5.32 132.14 -5.66 L 132.14 -5.66 Q 131.56 -6.03 131.11 -6.54 Q 130.65 -7.06 130.34 -7.69 L 130.34 -7.69 L 130.34 -18.73 Q 130.68 -19.41 131.15 -19.92 Q 131.63 -20.43 132.27 -20.78 L 132.27 -20.78 Q 132.83 -21.07 133.51 -21.23 Q 134.19 -21.39 135.02 -21.39 L 135.02 -21.39 Q 136.46 -21.39 137.48 -20.78 Q 138.49 -20.17 139.15 -19.12 L 139.15 -19.12 Q 139.78 -18.04 140.09 -16.59 Q 140.4 -15.14 140.4 -13.48 Z M 169.96 0 L 169.96 0 L 176.84 0 L 176.84 -0.42 Q 176.33 -1.42 176.06 -2.81 Q 175.79 -4.2 175.79 -6.32 L 175.79 -6.32 L 175.79 -17.65 Q 175.79 -19.95 174.94 -21.69 Q 174.08 -23.44 172.57 -24.58 L 172.57 -24.58 Q 171.06 -25.73 168.99 -26.32 Q 166.93 -26.9 164.54 -26.9 L 164.54 -26.9 Q 161.88 -26.9 159.81 -26.23 Q 157.75 -25.56 156.34 -24.41 L 156.34 -24.41 Q 154.89 -23.27 154.15 -21.75 Q 153.41 -20.24 153.41 -18.55 L 153.41 -18.55 L 160.19 -18.55 Q 160.19 -19.26 160.4 -19.85 Q 160.61 -20.43 161.05 -20.85 L 161.05 -20.85 Q 161.54 -21.31 162.32 -21.57 Q 163.1 -21.83 164.17 -21.83 L 164.17 -21.83 Q 165.39 -21.83 166.31 -21.52 Q 167.22 -21.22 167.83 -20.65 L 167.83 -20.65 Q 168.42 -20.12 168.71 -19.37 Q 169.01 -18.63 169.01 -17.7 L 169.01 -17.7 L 169.01 -16.14 L 165.22 -16.14 Q 162.29 -16.14 160.03 -15.61 Q 157.78 -15.09 156.24 -14.09 L 156.24 -14.09 Q 154.53 -12.99 153.67 -11.29 Q 152.82 -9.59 152.82 -7.4 L 152.82 -7.4 Q 152.82 -5.69 153.5 -4.24 Q 154.19 -2.78 155.41 -1.73 L 155.41 -1.73 Q 156.63 -0.68 158.32 -0.1 Q 160.02 0.49 162.05 0.49 L 162.05 0.49 Q 163.29 0.49 164.37 0.26 Q 165.44 0.02 166.34 -0.39 L 166.34 -0.39 Q 167.22 -0.78 167.96 -1.32 Q 168.69 -1.86 169.25 -2.47 L 169.25 -2.47 Q 169.37 -1.76 169.54 -1.12 Q 169.71 -0.49 169.96 0 Z M 163.49 -4.76 L 163.49 -4.76 Q 162.54 -4.76 161.82 -4.99 Q 161.1 -5.22 160.61 -5.62 L 160.61 -5.62 Q 160.12 -6.03 159.86 -6.63 Q 159.61 -7.23 159.61 -7.93 L 159.61 -7.93 Q 159.61 -8.84 159.95 -9.61 Q 160.29 -10.38 161 -10.94 L 161 -10.94 Q 161.71 -11.47 162.83 -11.78 Q 163.95 -12.08 165.54 -12.08 L 165.54 -12.08 L 169.01 -12.08 L 169.01 -7.54 Q 168.71 -7.03 168.2 -6.53 Q 167.69 -6.03 166.98 -5.64 L 166.98 -5.64 Q 166.27 -5.25 165.39 -5 Q 164.51 -4.76 163.49 -4.76 Z" stroke-linecap="round"/>
</g>
<g transform="matrix(2.5243 0 0 1.4786 301.7689 181.4468)" id="tight-bounds">
<path style="stroke: rgb(255,255,255); stroke-opacity: 0; stroke-width: 1; stroke-dasharray: none; stroke-linecap: butt; stroke-dashoffset: 0; stroke-linejoin: miter; stroke-miterlimit: 4; is-custom-font: none; font-file-url: none; fill: rgb(49,46,129); fill-rule: nonzero; opacity: 1;" transform=" translate(-197.76, -123.6)" d="M 85.191 76.009 A 122.216 122.216 0 0 1 310.329 76.009 L 304.498 76.009 A 116.385 116.385 0 0 0 91.022 76.009 L 85.191 76.009 M 85.191 171.191 A 122.216 122.216 0 0 0 310.329 171.191 L 304.498 171.191 A 116.385 116.385 0 0 1 91.022 171.191 L 85.191 171.191" stroke-linecap="round"/>
</g>
</svg>