<svg xmlns="http://www.w3.org/2000/svg" version="1.1" xmlns:xlink="http://www.w3.org/1999/xlink" xmlns:svgjs="http://svgjs.dev/svgjs" viewBox="0 0 2000 1247"><g><svg viewBox="0 0 396 247" data-background-color="#ffffff" preserveAspectRatio="xMidYMid meet" height="1247" width="2000" xmlns="http://www.w3.org/2000/svg" xmlns:xlink="http://www.w3.org/1999/xlink"><g id="tight-bounds"><svg viewBox="0 0 395.52 247.2" height="247.2" width="395.52"><g><svg></svg></g><g><svg viewBox="0 0 395.52 247.2" height="247.2" width="395.52"><g transform="matrix(1,0,0,1,75.54432,91.27253552213634)"><svg viewBox="0 0 244.43135999999998 64.65492895572733" height="64.65492895572733" width="244.43135999999998"><g><svg viewBox="0 0 244.43135999999998 64.65492895572733" height="64.65492895572733" width="244.43135999999998"><g><svg viewBox="0 0 244.43135999999998 64.65492895572733" height="64.65492895572733" width="244.43135999999998"><g><svg viewBox="0 0 244.43135999999998 64.65492895572733" height="64.65492895572733" width="244.43135999999998"><g id="textblocktransform"><svg viewBox="0 0 244.43135999999998 64.65492895572733" height="64.65492895572733" width="244.43135999999998" id="textblock"><g><svg viewBox="0 0 244.43135999999998 64.65492895572733" height="64.65492895572733" width="244.43135999999998"><g transform="matrix(1,0,0,1,0,0)"><svg width="244.43135999999998" viewBox="3.1500000953674316 -35.54999923706055 173.69000244140625 45.94999694824219" height="64.65492895572733" data-palette-color="#9caaf3"><g transform="matrix(1,0,0,1,0,0)"><g><svg width="0" viewBox="0 0 0 0" height="8.357421875" data-palette-color="#9caaf3" id="scriptelement" x="176.83999633789062" y="-35.54999923706055"><path d="M0 0" opacity="1" transform="matrix(1,0,0,1,0,0)" fill="#9caaf3" class="undefined-123" id="p-123"></path></svg></g></g><path d="M10.03-10.47L13.79-14.6 22.58 0 30.74 0 18.33-19.82 30.3-35.55 21.9-35.55 13.26-23.61 10.03-19.26 10.03-35.55 3.15-35.55 3.15 0 10.03 0 10.03-10.47ZM49.95 0L49.95 0 56.83 0 56.83-0.42Q56.32-1.42 56.05-2.81 55.78-4.2 55.78-6.32L55.78-6.32 55.78-17.65Q55.78-19.95 54.93-21.69 54.07-23.44 52.56-24.58L52.56-24.58Q51.05-25.73 48.98-26.32 46.92-26.9 44.53-26.9L44.53-26.9Q41.87-26.9 39.8-26.23 37.74-25.56 36.33-24.41L36.33-24.41Q34.89-23.27 34.14-21.75 33.4-20.24 33.4-18.55L33.4-18.55 40.18-18.55Q40.18-19.26 40.39-19.85 40.6-20.43 41.04-20.85L41.04-20.85Q41.53-21.31 42.31-21.57 43.09-21.83 44.16-21.83L44.16-21.83Q45.38-21.83 46.3-21.52 47.21-21.22 47.82-20.65L47.82-20.65Q48.41-20.12 48.7-19.37 49-18.63 49-17.7L49-17.7 49-16.14 45.21-16.14Q42.28-16.14 40.02-15.61 37.77-15.09 36.23-14.09L36.23-14.09Q34.52-12.99 33.66-11.29 32.81-9.59 32.81-7.4L32.81-7.4Q32.81-5.69 33.49-4.24 34.18-2.78 35.4-1.73L35.4-1.73Q36.62-0.68 38.32-0.1 40.01 0.49 42.04 0.49L42.04 0.49Q43.28 0.49 44.36 0.26 45.43 0.02 46.34-0.39L46.34-0.39Q47.21-0.78 47.95-1.32 48.68-1.86 49.24-2.47L49.24-2.47Q49.36-1.76 49.53-1.12 49.7-0.49 49.95 0ZM43.48-4.76L43.48-4.76Q42.53-4.76 41.81-4.99 41.09-5.22 40.6-5.62L40.6-5.62Q40.11-6.03 39.85-6.63 39.6-7.23 39.6-7.93L39.6-7.93Q39.6-8.84 39.94-9.61 40.28-10.38 40.99-10.94L40.99-10.94Q41.7-11.47 42.82-11.78 43.94-12.08 45.53-12.08L45.53-12.08 49-12.08 49-7.54Q48.7-7.03 48.19-6.53 47.68-6.03 46.97-5.64L46.97-5.64Q46.26-5.25 45.38-5 44.5-4.76 43.48-4.76ZM62.76-13.4L62.76-13.4 62.76-12.89Q62.76-10.01 63.51-7.56 64.25-5.1 65.64-3.32L65.64-3.32Q67.04-1.54 69-0.52 70.97 0.49 73.43 0.49L73.43 0.49Q74.68 0.49 75.76 0.22 76.85-0.05 77.75-0.54L77.75-0.54Q78.36-0.88 78.9-1.32 79.44-1.76 79.93-2.29L79.93-2.29 79.93-0.78Q79.93 0.56 79.55 1.64 79.17 2.71 78.46 3.44L78.46 3.44Q77.68 4.25 76.52 4.66 75.36 5.08 73.87 5.08L73.87 5.08Q72.94 5.08 72.08 4.9 71.21 4.71 70.41 4.35L70.41 4.35Q69.58 3.98 68.82 3.41 68.06 2.83 67.4 2.08L67.4 2.08 64.35 6.2Q65.2 7.3 66.4 8.09 67.6 8.89 68.94 9.4L68.94 9.4Q70.28 9.91 71.65 10.16 73.02 10.4 74.21 10.4L74.21 10.4Q77 10.4 79.3 9.66 81.61 8.91 83.27 7.47L83.27 7.47Q84.91 6.03 85.82 3.93 86.74 1.83 86.74-0.85L86.74-0.85 86.74-26.42 80.56-26.42 80.29-23.9Q79.8-24.51 79.22-25.01 78.63-25.51 77.95-25.88L77.95-25.88Q77.05-26.39 75.93-26.65 74.82-26.9 73.48-26.9L73.48-26.9Q70.99-26.9 69.01-25.93 67.04-24.95 65.64-23.17L65.64-23.17Q64.25-21.39 63.51-18.9 62.76-16.41 62.76-13.4ZM69.58-12.89L69.58-12.89 69.58-13.4Q69.58-15.06 69.92-16.52 70.26-17.97 70.97-19.07L70.97-19.07Q71.65-20.14 72.7-20.76 73.75-21.39 75.19-21.39L75.19-21.39Q75.97-21.39 76.64-21.24 77.31-21.09 77.88-20.83L77.88-20.83Q78.54-20.51 79.05-20 79.56-19.48 79.93-18.8L79.93-18.8 79.93-7.62Q79.58-7.01 79.12-6.52 78.66-6.03 78.05-5.69L78.05-5.69Q77.46-5.37 76.74-5.2 76.02-5.03 75.14-5.03L75.14-5.03Q73.7-5.03 72.65-5.64 71.6-6.25 70.92-7.32L70.92-7.32Q70.23-8.37 69.9-9.8 69.58-11.23 69.58-12.89ZM106.27 0.49L106.27 0.49Q110.1 0.49 112.91-1 115.72-2.49 117.01-4.32L117.01-4.32 113.62-7.98Q112.44-6.47 110.56-5.71 108.68-4.96 106.68-4.96L106.68-4.96Q105.27-4.96 104.07-5.4 102.87-5.83 101.95-6.64L101.95-6.64Q101.04-7.42 100.51-8.39 99.97-9.35 99.63-10.94L99.63-10.94 99.63-11.01 117.55-11.01 117.55-13.89Q117.55-16.8 116.74-19.2 115.93-21.61 114.4-23.32L114.4-23.32Q112.83-25.02 110.6-25.96 108.37-26.9 105.51-26.9L105.51-26.9Q102.75-26.9 100.41-25.9 98.06-24.9 96.35-23.1L96.35-23.1Q94.65-21.29 93.69-18.79 92.74-16.28 92.74-13.26L92.74-13.26 92.74-12.28Q92.74-9.62 93.71-7.29 94.67-4.96 96.45-3.25L96.45-3.25Q98.23-1.51 100.72-0.51 103.22 0.49 106.27 0.49ZM105.46-21.41L105.46-21.41Q106.76-21.41 107.74-21.01 108.73-20.61 109.42-19.92L109.42-19.92Q110.1-19.21 110.49-18.26 110.88-17.31 110.88-16.24L110.88-16.24 110.88-15.7 99.75-15.7Q99.99-16.99 100.48-18.04 100.97-19.09 101.7-19.85L101.7-19.85Q102.41-20.61 103.36-21.01 104.31-21.41 105.46-21.41ZM123.55-26.42L123.55 10.16 130.34 10.16 130.34-2.29Q130.8-1.78 131.31-1.37 131.83-0.95 132.39-0.61L132.39-0.61Q133.34-0.07 134.45 0.21 135.56 0.49 136.88 0.49L136.88 0.49Q139.37 0.49 141.3-0.54 143.23-1.56 144.55-3.37L144.55-3.37Q145.84-5.15 146.51-7.62 147.18-10.08 147.18-12.96L147.18-12.96 147.18-13.48Q147.18-16.48 146.51-18.96 145.84-21.44 144.52-23.22L144.52-23.22Q143.2-24.98 141.27-25.94 139.35-26.9 136.83-26.9L136.83-26.9Q135.61-26.9 134.55-26.65 133.49-26.39 132.61-25.93L132.61-25.93Q131.87-25.54 131.24-25.01 130.61-24.49 130.07-23.83L130.07-23.83 129.82-26.42 123.55-26.42ZM140.4-13.48L140.4-13.48 140.4-12.96Q140.4-11.33 140.1-9.88 139.81-8.42 139.17-7.32L139.17-7.32Q138.54-6.23 137.53-5.59 136.51-4.96 135.07-4.96L135.07-4.96Q134.17-4.96 133.44-5.14 132.7-5.32 132.14-5.66L132.14-5.66Q131.56-6.03 131.11-6.54 130.65-7.06 130.34-7.69L130.34-7.69 130.34-18.73Q130.68-19.41 131.15-19.92 131.63-20.43 132.27-20.78L132.27-20.78Q132.83-21.07 133.51-21.23 134.19-21.39 135.02-21.39L135.02-21.39Q136.46-21.39 137.48-20.78 138.49-20.17 139.15-19.12L139.15-19.12Q139.78-18.04 140.09-16.59 140.4-15.14 140.4-13.48ZM169.96 0L169.96 0 176.84 0 176.84-0.42Q176.33-1.42 176.06-2.81 175.79-4.2 175.79-6.32L175.79-6.32 175.79-17.65Q175.79-19.95 174.94-21.69 174.08-23.44 172.57-24.58L172.57-24.58Q171.06-25.73 168.99-26.32 166.93-26.9 164.54-26.9L164.54-26.9Q161.88-26.9 159.81-26.23 157.75-25.56 156.34-24.41L156.34-24.41Q154.89-23.27 154.15-21.75 153.41-20.24 153.41-18.55L153.41-18.55 160.19-18.55Q160.19-19.26 160.4-19.85 160.61-20.43 161.05-20.85L161.05-20.85Q161.54-21.31 162.32-21.57 163.1-21.83 164.17-21.83L164.17-21.83Q165.39-21.83 166.31-21.52 167.22-21.22 167.83-20.65L167.83-20.65Q168.42-20.12 168.71-19.37 169.01-18.63 169.01-17.7L169.01-17.7 169.01-16.14 165.22-16.14Q162.29-16.14 160.03-15.61 157.78-15.09 156.24-14.09L156.24-14.09Q154.53-12.99 153.67-11.29 152.82-9.59 152.82-7.4L152.82-7.4Q152.82-5.69 153.5-4.24 154.19-2.78 155.41-1.73L155.41-1.73Q156.63-0.68 158.32-0.1 160.02 0.49 162.05 0.49L162.05 0.49Q163.29 0.49 164.37 0.26 165.44 0.02 166.34-0.39L166.34-0.39Q167.22-0.78 167.96-1.32 168.69-1.86 169.25-2.47L169.25-2.47Q169.37-1.76 169.54-1.12 169.71-0.49 169.96 0ZM163.49-4.76L163.49-4.76Q162.54-4.76 161.82-4.99 161.1-5.22 160.61-5.62L160.61-5.62Q160.12-6.03 159.86-6.63 159.61-7.23 159.61-7.93L159.61-7.93Q159.61-8.84 159.95-9.61 160.29-10.38 161-10.94L161-10.94Q161.71-11.47 162.83-11.78 163.95-12.08 165.54-12.08L165.54-12.08 169.01-12.08 169.01-7.54Q168.71-7.03 168.2-6.53 167.69-6.03 166.98-5.64L166.98-5.64Q166.27-5.25 165.39-5 164.51-4.76 163.49-4.76Z" opacity="1" transform="matrix(1,0,0,1,0,0)" fill="#9caaf3" class="undefined-text-0" data-fill-palette-color="primary" id="text-0"></path></svg></g></svg></g></svg></g></svg></g><g></g></svg></g></svg></g></svg></g><g><path d="M85.191 76.009A122.216 122.216 0 0 1 310.329 76.009L304.498 76.009A116.385 116.385 0 0 0 91.022 76.009L85.191 76.009M85.191 171.191A122.216 122.216 0 0 0 310.329 171.191L304.498 171.191A116.385 116.385 0 0 1 91.022 171.191L85.191 171.191" fill="#312e81" stroke="transparent" data-fill-palette-color="tertiary"></path></g></svg></g><defs></defs></svg><rect width="395.52" height="247.2" fill="none" stroke="none" visibility="hidden"></rect></g></svg></g></svg>